<svg xmlns="http://www.w3.org/2000/svg" viewBox="0 0 1031.87 104.52"><defs><style>.cls-1{fill:#fff;}.cls-2{fill:#e5bd17;}</style></defs><g id="Layer_2" data-name="Layer 2"><g id="Layer_1-2" data-name="Layer 1"><polygon class="cls-1" points="537.91 102.45 473.16 102.45 473.16 0.28 536.91 0.28 536.91 13.94 488.81 13.94 488.81 42.97 532.64 42.97 532.64 56.63 488.81 56.63 488.81 88.79 537.91 88.79 537.91 102.45"/><rect class="cls-1" x="555.14" y="0.28" width="14.51" height="102.17"/><path class="cls-1" d="M584.16,64.32c0-22.34,15.23-38.71,36-38.71,22.48,0,37.42,18.22,34.86,42.69H598.82c1.14,15.37,8.82,24.33,21.49,24.33C631,92.63,638.38,86.8,640.8,77H655c-3.7,16.79-16.65,26.89-34.44,26.89-21.77,0-36.43-15.79-36.43-39.55M599,58.77H639.8c-.71-14-8.25-22.34-19.92-22.34S600.53,44.68,599,58.77"/><path class="cls-1" d="M663.43,64.74c0-22.76,14.8-39.13,35.15-39.13,18.64,0,32.16,12.38,34.86,32H718.36c-1.57-12.1-9.11-19.35-19.64-19.35-12.38,0-20.49,10.52-20.49,26.46s8.11,26.47,20.49,26.47c10.67,0,18.07-7.11,19.78-19.35h14.94C730.88,91.78,717.5,104,698.58,104c-20.63,0-35.15-16.23-35.15-39.28"/><path class="cls-1" d="M790.51,101.17a29.24,29.24,0,0,1-12.81,2.7c-13.94,0-23.62-7.54-23.62-24.18V39.27H737.43V27h16.65V4.7h14.37V27h22.77V39.27H768.45V76.41c0,10.39,5,14.09,12.67,14.09a21.08,21.08,0,0,0,9.39-2Z"/><path class="cls-1" d="M819.26,102.45H804.89V27h13.37V43c5.27-10.39,16.65-16.93,29-16.93V41c-16.22-.85-28,6.26-28,22.91Z"/><path class="cls-1" d="M865.79,19.07c-6.12,0-10.53-4.13-10.53-9.54S859.67,0,865.79,0s10.39,4,10.39,9.53-4.27,9.54-10.39,9.54m-7.11,8h14.37v75.42H858.68Z"/><path class="cls-1" d="M887.57,64.74c0-22.76,14.79-39.13,35.14-39.13,18.64,0,32.16,12.38,34.87,32H942.49c-1.56-12.1-9.1-19.35-19.63-19.35-12.38,0-20.5,10.52-20.5,26.46s8.12,26.47,20.5,26.47c10.67,0,18.07-7.11,19.77-19.35h15C955,91.78,941.64,104,922.71,104c-20.63,0-35.14-16.23-35.14-39.28"/><path class="cls-1" d="M1000.28,103.87c-19.93,0-31.74-9.81-33.16-26h13.8c.57,9.4,8.11,15.23,19.64,15.23,10.1,0,16.79-3.56,16.79-10.67,0-6.26-3.84-9-13.23-10.82L991.88,69.3c-14-2.71-21.77-9.82-21.77-21.2,0-13.24,11.52-22.49,29-22.49,18.07,0,30.31,9.68,31.59,25.19h-13.81c-.85-9.11-7.54-14.37-17.64-14.37-9.11,0-15.23,3.84-15.23,10.39,0,6.11,3.84,9,13,10.67l12.81,2.42c14.94,2.7,22.06,9.24,22.06,20.06,0,14.8-11.53,23.9-31.59,23.9"/><path class="cls-2" d="M119,26.26c-17.64,0-29.74,11.24-30.45,28.17h13.09C102,43.9,108.44,37.64,119,37.64c10,0,15.8,6.12,15.8,16.93v5.55a108.81,108.81,0,0,0-14.09-.85C98.2,59.27,86.39,67,86.39,81.75c0,13.8,10.24,22.77,25.9,22.77,11.09,0,19.49-4.7,24.19-13.09v11.66h12V54.71c0-17.93-10.82-28.45-29.46-28.45m15.8,48.95c0,11.52-7.55,19.06-19.64,19.06-9.25,0-15.08-5.12-15.08-13,0-8.82,7.11-13.09,21.48-13.09a98.67,98.67,0,0,1,13.24.86Z"/><polygon class="cls-2" points="223.28 39.2 223.28 27.68 163.23 27.68 163.23 40.06 205.35 40.06 162.52 91.85 162.52 103.09 224.7 103.09 224.7 90.57 180.45 90.57 223.28 39.2"/><polygon class="cls-2" points="265.69 86.59 244.77 27.68 229.26 27.68 257.58 103.09 273.23 103.09 301.55 27.68 286.89 27.68 265.69 86.59"/><path class="cls-2" d="M338.27,26.26c-17.65,0-29.74,11.24-30.45,28.17h13.09c.43-10.53,6.83-16.79,17.36-16.79,10,0,15.8,6.12,15.8,16.93v5.55A108.81,108.81,0,0,0,340,59.27c-22.49,0-34.3,7.68-34.3,22.48,0,13.8,10.25,22.77,25.9,22.77,11.1,0,19.5-4.7,24.19-13.09v11.66h12V54.71c0-17.93-10.82-28.45-29.46-28.45m15.8,48.95c0,11.52-7.55,19.06-19.64,19.06-9.25,0-15.08-5.12-15.08-13,0-8.82,7.11-13.09,21.48-13.09a98.67,98.67,0,0,1,13.24.86Z"/><path class="cls-2" d="M424.37,26.26c-10.39,0-18.93,5.55-24.05,13.94V27.68H386.94v75.41h14.37V60.55c0-13.38,8.26-21.63,18.08-21.63,10.67,0,16.36,7.26,16.36,20.21v44h14.37V54.29c0-18.07-10.24-28-25.75-28"/><path class="cls-2" d="M75.7,32.8C75.7,12.45,61.61.92,38.14.92H0V23a7.34,7.34,0,0,0,7.34,7.34h7.37A13.57,13.57,0,0,1,28.05,19.22H44.18v4.64H56.59A2.09,2.09,0,0,1,58.68,26v.7a2.09,2.09,0,0,1-2.09,2.09H44.18v8.7H56.59a2.09,2.09,0,0,1,2.09,2.09v.7a2.09,2.09,0,0,1-2.09,2.09H44.18v4.06H28.05A13.57,13.57,0,0,1,14.71,35.24H7.34A7.34,7.34,0,0,0,0,42.58v60.51H15.65V64.67H34.44l25.47,38.42H78.69L50.94,62.4C66.46,58.7,75.7,47.46,75.7,32.8"/></g></g></svg>