<svg xmlns="http://www.w3.org/2000/svg" viewBox="0 0 572.5 229.89"><defs><style>.cls-1{fill:#2d2d2c;}.cls-2{fill:#e3bc22;}</style></defs><g id="Layer_2" data-name="Layer 2"><g id="Layer_1-2" data-name="Layer 1"><polygon class="cls-1" points="66.35 228.29 0 228.29 0 123.59 65.32 123.59 65.32 137.59 16.04 137.59 16.04 167.34 60.95 167.34 60.95 181.34 16.04 181.34 16.04 214.29 66.35 214.29 66.35 228.29"/><rect class="cls-1" x="84" y="123.59" width="14.87" height="104.69"/><path class="cls-1" d="M113.74,189.21c0-22.89,15.6-39.66,36.89-39.66,23,0,38.35,18.66,35.73,43.74h-57.6c1.17,15.75,9,24.94,22,24.94,10.93,0,18.52-6,21-16h14.58c-3.79,17.2-17.06,27.56-35.29,27.56-22.31,0-37.33-16.19-37.33-40.54m15.17-5.69h41.85c-.73-14.29-8.46-22.89-20.42-22.89-11.81,0-19.83,8.46-21.43,22.89"/><path class="cls-1" d="M195,189.65c0-23.33,15.16-40.1,36-40.1,19.1,0,33,12.69,35.73,32.81H251.25c-1.6-12.39-9.33-19.83-20.12-19.83-12.69,0-21,10.79-21,27.12s8.31,27.12,21,27.12c10.93,0,18.52-7.29,20.27-19.83h15.31c-2.63,20.41-16.33,32.95-35.73,32.95-21.14,0-36-16.62-36-40.24"/><path class="cls-1" d="M325.18,227a29.94,29.94,0,0,1-13.12,2.77c-14.29,0-24.2-7.73-24.2-24.79V163.55H270.8V151h17.06V128.12h14.72V151h23.33v12.54H302.58v38c0,10.65,5.11,14.44,13,14.44a21.5,21.5,0,0,0,9.62-2Z"/><path class="cls-1" d="M354.64,228.29H339.91V151h13.71v16.33C359,156.7,370.68,150,383.37,150V165.3c-16.62-.88-28.73,6.42-28.73,23.47Z"/><path class="cls-1" d="M402.33,142.84c-6.27,0-10.79-4.23-10.79-9.77s4.52-9.76,10.79-9.76S413,127.39,413,133.07s-4.37,9.77-10.64,9.77M395,151h14.72v77.28H395Z"/><path class="cls-1" d="M424.64,189.65c0-23.33,15.16-40.1,36-40.1,19.1,0,33,12.69,35.73,32.81H480.92c-1.6-12.39-9.33-19.83-20.12-19.83-12.69,0-21,10.79-21,27.12s8.31,27.12,21,27.12c10.94,0,18.52-7.29,20.27-19.83h15.31c-2.63,20.41-16.33,32.95-35.73,32.95-21.14,0-36-16.62-36-40.24"/><path class="cls-1" d="M540.13,229.75c-20.41,0-32.51-10.06-34-26.69H520.3c.58,9.63,8.31,15.6,20.12,15.6,10.35,0,17.21-3.64,17.21-10.93,0-6.42-3.94-9.19-13.56-11.08l-12.54-2.33c-14.29-2.78-22.31-10.07-22.31-21.73,0-13.56,11.81-23,29.74-23,18.52,0,31.06,9.92,32.37,25.81H557.19c-.88-9.33-7.73-14.73-18.08-14.73-9.33,0-15.6,3.94-15.6,10.65,0,6.27,3.93,9.18,13.27,10.93l13.12,2.48c15.31,2.77,22.6,9.48,22.6,20.56,0,15.16-11.81,24.5-32.37,24.5"/><path class="cls-2" d="M121.91,26c-18.08,0-30.47,11.52-31.2,28.87h13.41c.44-10.79,7-17.21,17.79-17.21,10.21,0,16.19,6.27,16.19,17.35v5.69a111.37,111.37,0,0,0-14.44-.88c-23,0-35.14,7.88-35.14,23,0,14.15,10.5,23.33,26.54,23.33,11.37,0,20-4.81,24.79-13.41v12h12.24V55.12C152.09,36.75,141,26,121.91,26M138.1,76.12c0,11.8-7.73,19.53-20.13,19.53-9.47,0-15.45-5.25-15.45-13.26,0-9,7.29-13.42,22-13.42a100.65,100.65,0,0,1,13.57.88Z"/><polygon class="cls-2" points="228.8 39.23 228.8 27.41 167.26 27.41 167.26 40.1 210.42 40.1 166.53 93.17 166.53 104.69 230.25 104.69 230.25 91.86 184.91 91.86 228.8 39.23"/><polygon class="cls-2" points="272.25 87.78 250.82 27.41 234.93 27.41 263.94 104.69 279.98 104.69 309 27.41 293.98 27.41 272.25 87.78"/><path class="cls-2" d="M346.62,26c-18.08,0-30.47,11.52-31.2,28.87h13.42c.43-10.79,7-17.21,17.78-17.21,10.21,0,16.19,6.27,16.19,17.35v5.69a111.27,111.27,0,0,0-14.44-.88c-23,0-35.14,7.88-35.14,23,0,14.15,10.5,23.33,26.54,23.33,11.37,0,20-4.81,24.79-13.41v12h12.25V55.12c0-18.37-11.08-29.16-30.19-29.16m16.19,50.16c0,11.8-7.73,19.53-20.12,19.53-9.48,0-15.46-5.25-15.46-13.26,0-9,7.29-13.42,22-13.42a100.61,100.61,0,0,1,13.56.88Z"/><path class="cls-2" d="M434.85,26c-10.65,0-19.4,5.68-24.65,14.29V27.41H396.5v77.28h14.72V61.1c0-13.71,8.46-22.17,18.52-22.17,10.94,0,16.77,7.44,16.77,20.71v45.05h14.73v-50c0-18.52-10.5-28.72-26.39-28.72"/><path class="cls-2" d="M77.57,32.66C77.57,11.81,63.14,0,39.08,0H0V22.65a7.52,7.52,0,0,0,7.52,7.52h7.56A13.9,13.9,0,0,1,28.74,18.75H45.27v4.76H58a2.14,2.14,0,0,1,2.14,2.14v.71A2.14,2.14,0,0,1,58,28.5H45.27v8.92H58a2.14,2.14,0,0,1,2.14,2.14v.71A2.14,2.14,0,0,1,58,42.41H45.27v4.17H28.74A13.9,13.9,0,0,1,15.08,35.16H7.52A7.52,7.52,0,0,0,0,42.68v62H16V65.32H35.29l26.1,39.37H80.63L52.2,63C68.1,59.2,77.57,47.68,77.57,32.66"/></g></g></svg>